<?xml version="1.0" standalone="no"?>
<!DOCTYPE svg PUBLIC "-//W3C//DTD SVG 20010904//EN"
 "http://www.w3.org/TR/2001/REC-SVG-20010904/DTD/svg10.dtd">
<svg version="1.0" xmlns="http://www.w3.org/2000/svg"
 width="512.000000pt" height="512.000000pt" viewBox="0 0 512.000000 512.000000"
 preserveAspectRatio="xMidYMid meet">
<metadata>
Created by potrace 1.11, written by Peter Selinger 2001-2013
</metadata>
<g transform="translate(0.000000,512.000000) scale(0.100000,-0.100000)"
fill="#000000" stroke="none">
<path d="M4907 4274 c-1 -1 -58 -5 -127 -9 -69 -4 -127 -8 -130 -10 -3 -2 -41
-6 -85 -10 -44 -3 -89 -8 -100 -10 -11 -2 -42 -7 -70 -10 -72 -9 -101 -13
-295 -45 -796 -133 -1642 -379 -2213 -644 -149 -69 -572 -348 -773 -510 -120
-97 -251 -219 -334 -312 -352 -390 -553 -907 -595 -1529 -4 -49 -8 -105 -10
-122 -4 -36 4 -42 21 -15 26 40 179 228 284 347 157 177 418 439 615 615 567
505 1298 998 2033 1368 100 51 182 89 182 85 -1 -4 -67 -40 -148 -80 -188 -91
-377 -205 -572 -344 -140 -100 -430 -326 -455 -355 -5 -6 -66 -60 -135 -120
-218 -190 -685 -663 -936 -949 -43 -49 -81 -92 -85 -95 -11 -10 -266 -316
-344 -415 -44 -55 -82 -102 -85 -105 -4 -4 -74 -95 -107 -140 -9 -13 -9 -17 0
-17 463 -22 1434 -21 1707 2 173 15 307 27 330 30 14 2 63 9 110 15 379 49
704 152 942 297 111 68 173 117 276 217 200 194 292 403 463 1045 39 146 79
295 89 331 10 36 39 138 65 228 45 160 129 416 178 542 91 238 243 550 343
706 13 18 12 20 -11 20 -14 0 -27 -1 -28 -2z"/>
</g>
</svg>
